<?xml version="1.0" standalone="no"?>
<!DOCTYPE svg PUBLIC "-//W3C//DTD SVG 20010904//EN"
 "http://www.w3.org/TR/2001/REC-SVG-20010904/DTD/svg10.dtd">
<svg version="1.0" xmlns="http://www.w3.org/2000/svg"
 width="1024.000000pt" height="1024.000000pt" viewBox="0 0 1024.000000 1024.000000"
 preserveAspectRatio="xMidYMid meet">

<g transform="translate(0.000000,1024.000000) scale(0.100000,-0.100000)"
fill="#ffffff" stroke="none">
<path d="M5015 8430 c-109 -25 -173 -125 -146 -228 23 -85 90 -134 178 -133
166 2 242 185 129 309 -40 44 -105 65 -161 52z"/>
<path d="M5487 8382 c-20 -22 -22 -73 -5 -90 7 -7 26 -12 43 -12 40 0 55 16
55 56 0 54 -60 83 -93 46z"/>
<path d="M3972 8344 c-25 -17 -31 -71 -10 -92 16 -16 73 -15 86 1 21 26 23 54
5 75 -25 29 -55 35 -81 16z"/>
<path d="M4340 8340 c-24 -24 -25 -48 -4 -78 19 -27 64 -29 87 -4 24 26 21 68
-5 86 -30 21 -54 20 -78 -4z"/>
<path d="M6430 8050 c-11 -11 -20 -31 -20 -45 0 -30 32 -65 60 -65 28 0 60 35
60 65 0 30 -32 65 -60 65 -11 0 -29 -9 -40 -20z"/>
<path d="M5865 8051 c-166 -41 -253 -223 -176 -372 28 -55 55 -84 106 -118 35
-23 50 -26 125 -26 68 0 93 5 126 22 120 64 171 230 109 352 -55 109 -178 169
-290 142z m135 -129 c99 -74 91 -216 -16 -267 -121 -57 -253 74 -200 198 37
87 145 121 216 69z"/>
<path d="M3567 8012 c-50 -55 31 -139 88 -92 21 17 19 73 -3 93 -24 22 -65 21
-85 -1z"/>
<path d="M3961 8016 c-7 -8 -11 -30 -9 -48 6 -60 76 -71 107 -16 13 23 13 29
-2 52 -13 19 -26 26 -51 26 -18 0 -39 -6 -45 -14z"/>
<path d="M4342 8014 c-28 -19 -29 -67 -2 -94 25 -25 41 -25 74 1 39 31 34 74
-11 98 -28 14 -34 14 -61 -5z"/>
<path d="M6948 7866 c-95 -34 -149 -81 -199 -176 -21 -39 -24 -59 -24 -145 0
-107 12 -144 70 -213 14 -16 25 -34 25 -38 0 -5 -67 -77 -148 -160 l-147 -152
-65 -4 c-44 -2 -74 -10 -93 -23 -35 -26 -67 -92 -67 -141 -1 -35 -9 -48 -81
-124 l-80 -85 -107 110 c-58 61 -218 227 -356 370 -137 143 -299 311 -360 374
-130 135 -167 156 -271 155 -121 -1 -122 -1 -496 -390 -185 -192 -380 -397
-435 -456 -58 -62 -103 -104 -110 -100 -6 4 -67 66 -135 137 -67 72 -239 250
-382 397 -253 262 -258 268 -243 290 20 28 21 107 2 151 -18 44 -78 95 -121
103 -97 18 -175 -19 -215 -101 -58 -120 25 -257 162 -269 24 -2 46 -4 49 -5
11 -2 559 -570 559 -581 0 -7 -95 -10 -293 -10 -272 0 -295 -1 -310 -18 -21
-23 -21 -41 -1 -70 15 -22 15 -22 352 -22 l338 0 64 -65 64 -65 -104 -107
c-320 -331 -575 -602 -651 -693 -190 -226 -357 -605 -409 -926 -25 -156 -27
-409 -5 -596 100 -859 789 -1613 1704 -1863 488 -134 1007 -104 1500 86 184
71 273 117 447 231 370 242 675 592 831 952 87 200 152 439 173 632 14 133 14
366 0 479 -24 190 -86 414 -165 589 -14 32 -25 59 -23 60 2 1 37 15 78 32 79
30 211 109 280 165 22 19 80 80 128 136 93 107 157 221 202 356 25 77 21 112
-15 129 -35 16 -69 -10 -90 -69 -95 -264 -268 -455 -532 -591 l-102 -52 -47
72 c-83 130 -110 160 -544 612 -173 181 -316 332 -318 336 -1 4 33 42 77 85
l81 78 64 1 c105 2 159 58 157 164 l0 58 158 158 159 159 104 1 c88 1 110 5
153 26 64 31 131 93 158 145 26 50 47 138 41 173 -13 82 -18 100 -41 145 -37
74 -102 131 -175 156 -70 24 -164 27 -220 7z m-3821 -251 c37 -37 38 -60 5
-97 -21 -25 -86 -24 -112 2 -35 35 -17 100 34 120 33 13 36 12 73 -25z m1972
-601 c44 -37 44 -91 -1 -129 -40 -34 -91 -29 -126 11 -29 34 -24 75 15 116 34
35 72 36 112 2z m11 -586 c24 -9 1042 -1016 1141 -1129 l49 -56 -66 -70 -67
-70 -436 441 c-239 243 -483 489 -541 549 -102 103 -108 107 -148 107 l-43 0
-312 -317 c-844 -859 -926 -944 -931 -962 -2 -9 -7 -32 -10 -51 -14 -84 -72
-132 -158 -132 -59 1 -104 25 -136 73 -20 28 -23 44 -20 92 6 86 57 143 136
154 38 5 76 41 693 665 359 363 668 671 686 685 53 41 95 46 163 21z m-829
-21 c52 -35 79 -82 79 -139 0 -57 -17 -96 -60 -131 -116 -98 -299 21 -259 169
29 105 155 159 240 101z m1708 -7 c37 -26 70 -90 71 -135 0 -50 -40 -117 -85
-143 -31 -18 -51 -22 -92 -19 -96 7 -160 83 -151 179 6 55 28 92 79 126 45 31
129 28 178 -8z m-895 -730 c28 -17 1220 -1209 1309 -1308 39 -45 48 -91 26
-135 -6 -12 -266 -277 -577 -589 l-565 -566 -29 43 c-16 24 -45 55 -64 70
l-36 28 121 121 c67 67 121 126 121 132 0 6 -14 23 -31 40 -17 16 -63 64 -102
107 l-70 78 64 65 64 64 105 -105 c58 -58 109 -105 114 -105 11 0 315 300 507
502 108 113 148 161 142 171 -13 23 -715 736 -730 741 -24 10 -41 -5 -163
-137 -168 -182 -178 -190 -257 -195 l-64 -4 -167 171 c-92 94 -174 171 -183
171 -17 0 -691 -682 -722 -731 l-18 -28 43 -48 c24 -26 98 -104 165 -172 68
-67 157 -161 199 -207 l76 -83 -64 -70 -63 -71 -213 213 c-261 259 -369 378
-378 413 -16 62 5 87 464 553 469 476 474 480 550 466 31 -6 63 -33 196 -171
87 -90 166 -164 175 -164 9 0 72 56 140 124 106 106 122 126 113 142 -6 11
-79 87 -162 169 -84 83 -161 161 -171 174 -37 46 -16 118 41 140 38 15 60 13
94 -9z m-1466 -137 c32 -27 37 -64 12 -96 -28 -35 -81 -38 -104 -5 -49 70 29
154 92 101z m2937 -8 c30 -29 31 -45 4 -79 -38 -48 -119 -22 -119 39 0 32 33
65 65 65 14 0 37 -11 50 -25z m15 -488 c49 -26 90 -90 90 -139 0 -44 -23 -90
-64 -126 -33 -29 -43 -32 -103 -32 -65 0 -67 1 -109 44 -57 60 -65 107 -30
179 44 92 129 120 216 74z m-1971 -501 c31 -17 301 -288 301 -301 0 -6 -29
-40 -65 -75 l-66 -65 -149 150 c-123 126 -149 157 -155 189 -8 42 13 81 56
103 30 16 48 16 78 -1z m951 -1 c36 -18 50 -43 50 -86 0 -29 -57 -90 -618
-653 l-619 -621 -6 -50 c-14 -100 -72 -155 -165 -155 -65 0 -104 19 -137 67
-29 44 -34 117 -10 163 21 41 76 80 122 87 35 5 93 60 653 618 338 337 626
620 640 629 30 20 53 20 90 1z m-2330 -62 c25 -32 20 -69 -12 -95 -45 -39
-111 -8 -111 52 0 68 81 96 123 43z m3739 1 c12 -15 21 -37 21 -50 0 -58 -92
-89 -124 -42 -54 76 46 164 103 92z m-3227 -841 c24 -21 23 -68 -2 -93 -27
-27 -75 -26 -94 2 -33 47 -7 108 46 108 17 0 40 -7 50 -17z m2700 0 c37 -33
11 -103 -39 -103 -43 0 -63 18 -63 55 0 18 7 41 16 49 20 21 63 20 86 -1z
m-1575 -355 c29 -29 53 -56 53 -60 0 -5 -15 -22 -33 -38 -18 -16 -42 -45 -52
-64 -11 -20 -22 -36 -26 -36 -4 0 -28 26 -55 58 -27 31 -53 60 -59 64 -9 6
100 128 114 128 3 0 29 -23 58 -52z m1103 -3 c53 -27 82 -82 81 -153 -1 -59
-31 -106 -87 -133 -137 -66 -279 66 -220 204 38 89 140 126 226 82z m-835
-160 c103 -78 86 -236 -29 -280 -146 -56 -267 86 -193 225 46 87 148 112 222
55z"/>
<path d="M3875 7674 c-155 -81 -151 -282 7 -348 74 -31 157 -9 215 57 75 86
46 235 -57 287 -47 24 -123 26 -165 4z m130 -119 c33 -33 32 -70 -4 -106 -36
-36 -73 -37 -106 -4 -27 26 -31 54 -13 88 27 52 83 62 123 22z"/>
<path d="M5967 7252 c-21 -23 -22 -56 -1 -76 13 -13 42 -16 165 -16 137 0 151
2 170 21 11 11 19 30 17 42 -5 38 -43 47 -194 47 -124 0 -143 -2 -157 -18z"/>
<path d="M2672 7078 c-18 -18 -14 -63 6 -81 15 -14 41 -17 140 -17 109 0 124
2 142 20 11 11 20 27 20 35 0 8 -9 24 -20 35 -18 18 -33 20 -148 20 -86 0
-132 -4 -140 -12z"/>
<path d="M7355 6845 c-5 -2 -22 -6 -37 -9 -31 -7 -93 -58 -110 -90 -48 -89 -6
-215 86 -257 130 -59 276 30 276 168 0 30 -6 66 -14 81 -16 30 -61 74 -91 90
-23 11 -95 23 -110 17z m84 -141 c12 -15 21 -37 21 -49 0 -12 -9 -34 -21 -49
-16 -20 -29 -26 -59 -26 -71 0 -104 76 -55 125 34 35 86 34 114 -1z"/>
<path d="M2697 6762 c-21 -23 -22 -51 -1 -80 23 -33 73 -27 94 11 13 24 13 30
0 55 -20 34 -68 42 -93 14z"/>
<path d="M6849 6749 c-24 -24 -20 -65 8 -86 50 -39 120 15 92 70 -23 43 -66
50 -100 16z"/>
<path d="M2322 6688 c-7 -7 -12 -27 -12 -45 0 -24 7 -37 26 -50 24 -15 29 -15
53 -2 52 29 31 109 -29 109 -14 0 -31 -5 -38 -12z"/>
<path d="M7797 6542 c-37 -40 -9 -102 46 -102 33 0 57 24 57 59 0 54 -68 82
-103 43z"/>
<path d="M3079 6452 c-23 -16 -25 -55 -3 -76 20 -21 231 -23 256 -3 24 19 28
44 10 66 -15 17 -32 20 -131 23 -82 2 -119 -1 -132 -10z"/>
<path d="M6847 6412 c-36 -40 -9 -102 45 -102 53 0 79 74 36 104 -30 21 -61
20 -81 -2z"/>
<path d="M2563 6329 c-133 -24 -221 -155 -192 -288 35 -164 230 -242 370 -148
77 51 123 169 100 254 -16 58 -70 133 -111 155 -49 25 -117 35 -167 27z"/>
<path d="M7346 6178 c-20 -28 -20 -48 0 -76 23 -33 83 -27 103 10 14 25 14 29
-5 55 -28 37 -76 43 -98 11z"/>
<path d="M2126 5794 c-37 -36 -4 -110 45 -102 12 2 31 15 42 29 16 23 17 30 7
50 -7 13 -18 27 -24 31 -19 13 -54 9 -70 -8z"/>
<path d="M7837 5522 c-36 -40 -9 -102 45 -102 51 0 78 69 40 103 -24 22 -65
21 -85 -1z"/>
<path d="M2117 5414 c-90 -28 -157 -127 -157 -231 0 -78 68 -179 145 -214 l30
-14 0 -409 0 -408 24 -19 c30 -24 46 -24 71 1 19 19 20 33 20 429 l0 409 32
11 c54 19 99 61 125 119 48 103 15 233 -75 295 -69 49 -130 57 -215 31z m144
-117 c19 -12 42 -40 53 -61 16 -32 17 -44 7 -76 -24 -80 -107 -118 -179 -81
-92 47 -96 168 -9 221 42 26 86 25 128 -3z"/>
<path d="M7816 5205 c-93 -24 -156 -100 -164 -200 -6 -72 36 -149 103 -190 40
-25 59 -30 109 -30 98 1 164 45 205 135 23 51 26 87 10 141 -33 108 -150 172
-263 144z m130 -139 c54 -54 40 -127 -31 -160 -46 -22 -86 -14 -125 26 -42 42
-41 85 4 132 28 30 40 36 76 36 34 0 48 -6 76 -34z"/>
<path d="M7836 4564 c-36 -35 -7 -104 42 -104 29 0 62 34 62 63 0 49 -70 76
-104 41z"/>
<path d="M7834 4295 c-28 -42 2 -105 50 -105 51 0 74 72 36 110 -28 28 -66 26
-86 -5z"/>
<path d="M7717 3952 c-22 -25 -21 -48 3 -72 17 -17 33 -20 123 -20 115 0 137
10 137 63 0 39 -26 47 -143 47 -88 0 -106 -3 -120 -18z"/>
<path d="M2154 3946 c-16 -12 -19 -29 -22 -112 -2 -110 10 -162 41 -173 58
-22 77 16 77 154 0 92 -3 108 -20 125 -24 24 -49 25 -76 6z"/>
<path d="M2616 3367 c-26 -19 -24 -67 4 -89 30 -24 46 -23 75 7 30 29 31 49 5
75 -23 23 -58 26 -84 7z"/>
<path d="M7406 3335 c-82 -21 -136 -93 -136 -179 0 -140 140 -226 268 -165
110 53 137 204 54 292 -51 54 -111 71 -186 52z m77 -107 c52 -27 62 -83 22
-123 -30 -30 -64 -32 -99 -4 -42 33 -32 109 17 129 30 12 35 12 60 -2z"/>
<path d="M2707 2932 c-48 -53 19 -133 75 -89 27 21 30 52 7 80 -24 31 -59 35
-82 9z"/>
<path d="M3022 2854 c-39 -27 -25 -94 24 -108 29 -9 74 28 74 60 0 28 -32 64
-58 64 -10 0 -28 -7 -40 -16z"/>
<path d="M6846 2598 c-21 -29 -20 -40 5 -72 36 -46 99 -23 99 36 0 53 -74 79
-104 36z"/>
</g>
</svg>
